# This file uses centimeters as units for non-parametric coordinates.

mtllib mushroom.mtl
g default
v -0.500000 0.000000 0.500000
v 0.500000 0.000000 0.500000
v -0.500000 1.329165 0.500000
v 0.500000 1.329165 0.500000
v -0.500000 1.329165 -0.500000
v 0.500000 1.329165 -0.500000
v -0.500000 0.000000 -0.500000
v 0.500000 0.000000 -0.500000
v -0.156907 3.039146 0.156907
v 0.156907 3.039146 0.156907
v 0.156907 3.039146 -0.156907
v -0.156907 3.039146 -0.156907
v 1.610021 2.071957 1.610021
v -1.610021 2.071957 1.610021
v -1.610021 2.071957 -1.610021
v 1.610021 2.071957 -1.610021
v 1.138003 2.607935 1.138003
v -1.138003 2.607935 1.138003
v -1.138003 2.607935 -1.138003
v 1.138003 2.607935 -1.138003
v 1.935005 1.535978 1.935005
v -1.935005 1.535978 1.935005
v -1.935005 1.535978 -1.935005
v 1.935005 1.535978 -1.935005
v 1.217502 1.523070 1.217502
v -1.217502 1.523070 1.217502
v -1.217502 1.523070 -1.217502
v 1.217502 1.523070 -1.217502
v 0.858751 1.464629 0.858751
v -0.858751 1.464629 0.858751
v -0.858751 1.464629 -0.858751
v 0.858751 1.464629 -0.858751
v 0.613848 0.500000 0.613848
v -0.613848 0.500000 0.613848
v -0.613848 0.500000 -0.613848
v 0.613848 0.500000 -0.613848
v 2.596235 1.535978 0.000000
v 1.633547 1.523070 0.000000
v 1.152204 1.464629 0.000000
v 0.670860 1.329165 0.000000
v 0.823613 0.500000 0.000000
v 0.670860 0.000000 0.000000
v -0.670860 0.000000 0.000000
v -0.823613 0.500000 0.000000
v -0.670860 1.329165 0.000000
v -1.152204 1.464629 0.000000
v -1.633547 1.523070 0.000000
v -2.596235 1.535978 0.000000
v -2.160197 2.071957 0.000000
v -1.526881 2.607935 0.000000
v -0.210525 3.039146 0.000000
v 0.210525 3.039146 0.000000
v 1.526881 2.607935 0.000000
v 2.160197 2.071957 0.000000
v 0.000000 2.607935 1.640577
v 0.000000 2.071957 2.321052
v 0.000000 1.535978 2.789558
v 0.000000 1.523070 1.755186
v 0.000000 1.464629 1.238000
v 0.000000 1.329165 0.720814
v 0.000000 0.500000 0.884941
v 0.000000 0.000000 0.720814
v 0.000000 0.000000 0.000000
v 0.000000 0.000000 -0.720814
v 0.000000 0.500000 -0.884941
v 0.000000 1.329165 -0.720814
v 0.000000 1.464629 -1.238000
v 0.000000 1.523070 -1.755186
v 0.000000 1.535978 -2.789558
v 0.000000 2.071957 -2.321052
v 0.000000 2.607935 -1.640577
v 0.000000 3.039146 -0.226201
v 0.000000 3.039146 0.000000
v 0.000000 3.039146 0.226201
vt 0.860924 0.137450
vt 0.676842 0.345037
vt 0.631633 0.331757
vt 0.647642 0.278957
vt 0.278454 0.268022
vt 0.273874 0.250619
vt 0.288085 0.251470
vt 0.297138 0.263105
vt 0.705472 0.069726
vt 0.729068 0.015150
vt 0.773389 0.048582
vt 0.746195 0.087296
vt 0.823310 0.053788
vt 0.800790 0.111298
vt 0.615490 0.384349
vt 0.737877 0.136090
vt 0.775118 0.167749
vt 0.676871 0.174711
vt 0.690931 0.123495
vt 0.572252 0.256304
vt 0.202838 0.804175
vt 0.165698 0.833699
vt 0.140279 0.751663
vt 0.544237 0.357877
vt 0.648034 0.001092
vt 0.321770 0.851617
vt 0.240651 0.869514
vt 0.317231 0.771978
vt 0.365120 0.777476
vt 0.617474 0.103013
vt 0.259587 0.704575
vt 0.264748 0.659625
vt 0.339701 0.695440
vt 0.062147 0.324949
vt 0.088298 0.156468
vt 0.154161 0.194887
vt 0.135916 0.305535
vt 0.468611 0.379576
vt 0.332543 0.473544
vt 0.313441 0.400961
vt 0.402748 0.341157
vt 0.389062 0.077314
vt 0.494762 0.211095
vt 0.420993 0.230509
vt 0.350644 0.143177
vt 0.224366 0.062500
vt 0.243468 0.135083
vt 0.259770 0.272939
vt 0.261923 0.258354
vt 0.283034 0.285425
vt 0.294985 0.277690
vt -0.000016 0.735556
vt 0.057212 0.919784
vt 0.448187 0.609354
vt 0.348949 0.535885
vt 0.407925 0.960048
vt 0.557113 0.194686
vt 0.207959 0.000159
vt 0.093403 0.746281
vt 0.129443 0.862475
vt 0.375956 0.666664
vt 0.269755 0.616011
vt 0.350561 0.887861
vt 0.411996 0.782858
vt 0.235644 0.913127
vt 0.708367 0.238644
vt 0.662600 0.226182
vt 0.588881 0.204383
vt 0.183629 0.677522
vt 0.154838 0.641278
vt 0.097474 0.569090
vt 0.167846 0.458730
vt 0.206264 0.392867
vt 0.268824 0.284575
vt 0.505415 0.793583
vt 0.422304 0.021598
vt -0.000204 0.341358
vt 0.134605 0.514446
vt 0.279726 0.529155
vt 0.524972 0.411711
vt 0.225673 0.999983
vt 0.031936 0.124333
vt 0.631684 0.050192
vt 0.292288 0.814444
vt 0.188168 0.757161
vt 0.558649 0.308778
vt 0.604464 0.154102
vt 0.302561 0.724964
vt 0.245812 0.824563
vt 0.213111 0.714695
vt 0.649307 0.443708
vt 0.694809 0.292522
vt 0.860211 0.086628
vt 0.721475 0.187121
vt 0.823677 0.171706
vt 0.660843 0.394821
vt 0.598951 0.439218
vt 0.526706 0.404512
vn 0.000000 -0.311881 0.950121
vn 0.698882 -0.306301 0.646331
vn 0.730124 0.003814 0.683304
vn 0.000000 0.004004 0.999992
vn 0.000000 1.000000 0.000000
vn 0.304016 0.952667 -0.000000
vn 0.214810 0.956728 -0.196288
vn 0.000000 0.958267 -0.285875
vn 0.000000 0.004004 -0.999992
vn 0.730124 0.003814 -0.683304
vn 0.698882 -0.306301 -0.646331
vn 0.000000 -0.311881 -0.950121
vn 0.000000 -1.000000 0.000000
vn 0.000000 -1.000000 0.000000
vn 0.000000 -1.000000 0.000000
vn 0.000000 -1.000000 0.000000
vn 0.956365 -0.292174 0.000000
vn 0.999996 0.002761 0.000000
vn -0.698882 -0.306301 -0.646331
vn -0.956365 -0.292174 0.000000
vn -0.999996 0.002761 0.000000
vn -0.730124 0.003814 -0.683304
vn 0.000000 -0.498423 0.866934
vn 0.639925 -0.490507 0.591522
vn 0.113807 -0.987787 0.106418
vn -0.000000 -0.988282 0.152642
vn 0.888401 -0.459069 0.000000
vn 0.639925 -0.490507 -0.591522
vn 0.113807 -0.987787 -0.106418
vn 0.167336 -0.985900 -0.000000
vn -0.000000 -0.498423 -0.866934
vn -0.000000 -0.988282 -0.152642
vn -0.639925 -0.490507 -0.591522
vn -0.888401 -0.459069 0.000000
vn -0.167336 -0.985900 -0.000000
vn -0.113807 -0.987787 -0.106418
vn 0.000000 0.710751 0.703444
vn 0.520000 0.703989 0.483735
vn 0.385332 0.851200 0.356340
vn 0.000000 0.855501 0.517801
vn -0.520000 0.703989 -0.483735
vn -0.725667 0.688046 0.000000
vn -0.537179 0.843469 0.000000
vn -0.385332 0.851200 -0.356340
vn 0.520000 0.703989 -0.483735
vn 0.000000 0.710751 -0.703444
vn 0.000000 0.855501 -0.517801
vn 0.385332 0.851200 -0.356340
vn 0.725667 0.688046 -0.000000
vn 0.537179 0.843469 -0.000000
vn 0.000000 0.958267 0.285875
vn 0.214810 0.956728 0.196288
vn -0.304016 0.952667 0.000000
vn -0.214810 0.956728 -0.196288
vn 0.000000 0.658127 0.752907
vn 0.551124 0.650808 0.522218
vn -0.551124 0.650808 -0.522218
vn -0.775721 0.631077 0.000000
vn 0.551124 0.650808 -0.522218
vn 0.000000 0.658127 -0.752907
vn 0.775721 0.631077 -0.000000
vn 0.000000 -0.999590 0.028652
vn 0.021317 -0.999571 0.020112
vn 0.009170 -0.999919 0.008819
vn -0.000000 -0.999922 0.012479
vn -0.021317 -0.999571 -0.020112
vn -0.032547 -0.999470 0.000000
vn -0.013408 -0.999910 0.000000
vn -0.009170 -0.999919 -0.008819
vn 0.021317 -0.999570 -0.020112
vn 0.000000 -0.999590 -0.028652
vn 0.000000 -0.999922 -0.012479
vn 0.009170 -0.999919 -0.008819
vn 0.032547 -0.999470 0.000000
vn 0.013408 -0.999910 0.000000
vn 0.000000 -1.000000 0.000000
vn 0.000000 -1.000000 0.000000
vn -0.698882 -0.306301 0.646331
vn -0.730124 0.003814 0.683304
vn -0.639925 -0.490507 0.591522
vn -0.113807 -0.987787 0.106418
vn -0.021317 -0.999570 0.020112
vn -0.009170 -0.999919 0.008819
vn -0.551124 0.650808 0.522218
vn -0.520000 0.703989 0.483735
vn -0.385332 0.851200 0.356340
vn -0.214810 0.956728 0.196288
vn 0.000000 -1.000000 0.000000
vn 0.000000 -1.000000 0.000000
vn 0.000000 -1.000000 0.000000
s 1
g Mushroom
usemtl initialShadingGroup
f 62/92/1 2/2/2 33/3/3 61/4/4
s 2
f 73/5/5 52/6/6 11/7/7 72/8/8
s 1
f 65/9/9 36/10/10 8/11/11 64/12/12
s 4
f 64/12/13 8/11/14 42/13/15 63/14/16
s 1
f 42/96/17 8/91/11 36/97/10 41/15/18
f 7/16/19 43/94/20 44/18/21 35/19/22
f 60/85/23 4/21/24 29/22/25 59/23/26
f 40/89/27 6/84/28 32/26/29 39/27/30
f 6/84/28 66/28/31 67/29/32 32/26/29
f 5/88/33 45/31/34 46/32/35 31/33/36
s 2
f 56/34/37 13/35/38 17/36/39 55/37/40
f 15/38/41 49/39/42 50/40/43 19/41/44
f 16/42/45 70/43/46 71/44/47 20/45/48
f 54/46/49 16/42/45 20/45/48 53/47/50
f 74/48/51 55/37/40 17/36/39 10/49/52
f 19/41/44 50/40/43 51/50/53 12/51/54
f 20/45/48 71/44/47 72/8/8 11/7/7
f 53/47/50 20/45/48 11/7/7 52/6/6
f 57/77/55 21/82/56 13/35/38 56/34/37
f 23/80/57 48/55/58 49/39/42 15/38/41
f 24/76/59 69/57/60 70/43/46 16/42/45
f 54/46/49 37/58/61 24/76/59 16/42/45
s 1
f 58/59/62 25/60/63 21/53/64 57/52/65
f 27/61/66 47/62/67 48/79/68 23/54/69
f 28/63/70 68/64/71 69/75/72 24/56/73
f 38/65/74 28/63/70 24/56/73 37/81/75
f 59/23/26 29/22/25 25/60/63 58/59/62
f 31/33/36 46/32/35 47/62/67 27/61/66
f 32/26/29 67/29/32 68/64/71 28/63/70
f 39/27/30 32/26/29 28/63/70 38/65/74
f 61/4/4 33/3/3 4/86/24 60/20/23
f 35/19/22 44/18/21 45/87/34 5/30/33
f 66/83/31 6/25/28 36/10/10 65/9/9
f 41/15/18 36/97/10 6/98/28 40/24/27
f 25/60/63 38/65/74 37/81/75 21/53/64
f 29/22/25 39/27/30 38/65/74 25/60/63
f 4/21/24 40/89/27 39/27/30 29/22/25
f 33/3/3 41/15/18 40/24/27 4/86/24
f 2/2/2 42/96/17 41/15/18 33/3/3
s 4
f 63/14/16 42/13/15 2/93/76 62/1/77
s 1
f 44/18/21 43/94/20 1/66/78 34/67/79
f 45/87/34 44/18/21 34/67/79 3/68/80
f 46/32/35 45/31/34 3/90/80 30/69/81
f 47/62/67 46/32/35 30/69/81 26/70/82
f 48/79/68 47/62/67 26/70/82 22/71/83
s 2
f 49/39/42 48/55/58 22/78/84 14/72/85
f 50/40/43 49/39/42 14/72/85 18/73/86
f 51/50/53 50/40/43 18/73/86 9/74/87
f 74/48/51 10/49/52 52/6/6 73/5/5
f 17/36/39 53/47/50 52/6/6 10/49/52
f 13/35/38 54/46/49 53/47/50 17/36/39
f 21/82/56 37/58/61 54/46/49 13/35/38
f 14/72/85 56/34/37 55/37/40 18/73/86
f 22/78/84 57/77/55 56/34/37 14/72/85
s 1
f 26/70/82 58/59/62 57/52/65 22/71/83
f 30/69/81 59/23/26 58/59/62 26/70/82
f 3/90/80 60/85/23 59/23/26 30/69/81
f 34/67/79 61/4/4 60/20/23 3/68/80
f 1/66/78 62/92/1 61/4/4 34/67/79
s 4
f 43/17/88 63/14/16 62/1/77 1/95/89
f 7/16/90 64/12/13 63/14/16 43/17/88
s 1
f 35/19/22 65/9/9 64/12/12 7/16/19
f 5/30/33 66/83/31 65/9/9 35/19/22
f 67/29/32 66/28/31 5/88/33 31/33/36
f 68/64/71 67/29/32 31/33/36 27/61/66
f 69/75/72 68/64/71 27/61/66 23/54/69
s 2
f 70/43/46 69/57/60 23/80/57 15/38/41
f 71/44/47 70/43/46 15/38/41 19/41/44
f 72/8/8 71/44/47 19/41/44 12/51/54
f 51/50/53 73/5/5 72/8/8 12/51/54
f 9/74/87 74/48/51 73/5/5 51/50/53
f 18/73/86 55/37/40 74/48/51 9/74/87
